<mxfile host="app.diagrams.net" agent="Mozilla/5.0 (Windows NT 10.0; Win64; x64) AppleWebKit/537.36 (KHTML, like Gecko) Chrome/135.0.0.0 Safari/537.36" version="26.2.13">
  <diagram name="第 1 页" id="EvVjvIT5QgwV6GnzDWeY">
    <mxGraphModel dx="1044" dy="527" grid="1" gridSize="10" guides="1" tooltips="1" connect="1" arrows="1" fold="1" page="1" pageScale="1" pageWidth="827" pageHeight="1169" math="0" shadow="0">
      <root>
        <mxCell id="0" />
        <mxCell id="1" parent="0" />
        <mxCell id="usgcLU4qQVvWO1kqKJym-13" style="edgeStyle=orthogonalEdgeStyle;rounded=0;orthogonalLoop=1;jettySize=auto;html=1;exitX=0.5;exitY=0;exitDx=0;exitDy=0;entryX=1;entryY=0.5;entryDx=0;entryDy=0;" edge="1" parent="1" source="usgcLU4qQVvWO1kqKJym-1" target="usgcLU4qQVvWO1kqKJym-5">
          <mxGeometry relative="1" as="geometry" />
        </mxCell>
        <mxCell id="usgcLU4qQVvWO1kqKJym-1" value="服务提供者A" style="rounded=1;whiteSpace=wrap;html=1;" vertex="1" parent="1">
          <mxGeometry x="530" y="310" width="120" height="60" as="geometry" />
        </mxCell>
        <mxCell id="usgcLU4qQVvWO1kqKJym-8" style="edgeStyle=orthogonalEdgeStyle;rounded=0;orthogonalLoop=1;jettySize=auto;html=1;exitX=0.5;exitY=0;exitDx=0;exitDy=0;entryX=0;entryY=0.5;entryDx=0;entryDy=0;" edge="1" parent="1" source="usgcLU4qQVvWO1kqKJym-2" target="usgcLU4qQVvWO1kqKJym-5">
          <mxGeometry relative="1" as="geometry" />
        </mxCell>
        <mxCell id="usgcLU4qQVvWO1kqKJym-9" value="订阅" style="edgeLabel;html=1;align=center;verticalAlign=middle;resizable=0;points=[];" vertex="1" connectable="0" parent="usgcLU4qQVvWO1kqKJym-8">
          <mxGeometry x="0.0721" y="3" relative="1" as="geometry">
            <mxPoint as="offset" />
          </mxGeometry>
        </mxCell>
        <mxCell id="usgcLU4qQVvWO1kqKJym-15" style="edgeStyle=orthogonalEdgeStyle;rounded=0;orthogonalLoop=1;jettySize=auto;html=1;exitX=1;exitY=0.5;exitDx=0;exitDy=0;entryX=0;entryY=0.5;entryDx=0;entryDy=0;" edge="1" parent="1" source="usgcLU4qQVvWO1kqKJym-2" target="usgcLU4qQVvWO1kqKJym-1">
          <mxGeometry relative="1" as="geometry" />
        </mxCell>
        <mxCell id="usgcLU4qQVvWO1kqKJym-16" value="从注册中心获取服务A的地址，发起调用" style="edgeLabel;html=1;align=center;verticalAlign=middle;resizable=0;points=[];" vertex="1" connectable="0" parent="usgcLU4qQVvWO1kqKJym-15">
          <mxGeometry x="-0.433" y="1" relative="1" as="geometry">
            <mxPoint x="45" y="1" as="offset" />
          </mxGeometry>
        </mxCell>
        <mxCell id="usgcLU4qQVvWO1kqKJym-2" value="服务消费者B" style="rounded=1;whiteSpace=wrap;html=1;" vertex="1" parent="1">
          <mxGeometry x="180" y="310" width="120" height="60" as="geometry" />
        </mxCell>
        <mxCell id="usgcLU4qQVvWO1kqKJym-11" value="" style="edgeStyle=orthogonalEdgeStyle;rounded=0;orthogonalLoop=1;jettySize=auto;html=1;entryX=0.75;entryY=0;entryDx=0;entryDy=0;" edge="1" parent="1" source="usgcLU4qQVvWO1kqKJym-3" target="usgcLU4qQVvWO1kqKJym-5">
          <mxGeometry relative="1" as="geometry">
            <mxPoint x="450" y="130" as="targetPoint" />
          </mxGeometry>
        </mxCell>
        <mxCell id="usgcLU4qQVvWO1kqKJym-3" value="服务提供者B" style="rounded=1;whiteSpace=wrap;html=1;" vertex="1" parent="1">
          <mxGeometry x="530" y="90" width="120" height="60" as="geometry" />
        </mxCell>
        <mxCell id="usgcLU4qQVvWO1kqKJym-6" style="edgeStyle=orthogonalEdgeStyle;rounded=0;orthogonalLoop=1;jettySize=auto;html=1;exitX=1;exitY=0.5;exitDx=0;exitDy=0;entryX=0.25;entryY=0;entryDx=0;entryDy=0;" edge="1" parent="1" source="usgcLU4qQVvWO1kqKJym-4" target="usgcLU4qQVvWO1kqKJym-5">
          <mxGeometry relative="1" as="geometry" />
        </mxCell>
        <mxCell id="usgcLU4qQVvWO1kqKJym-7" value="获取实例" style="edgeLabel;html=1;align=center;verticalAlign=middle;resizable=0;points=[];" vertex="1" connectable="0" parent="usgcLU4qQVvWO1kqKJym-6">
          <mxGeometry x="-0.6424" y="-1" relative="1" as="geometry">
            <mxPoint as="offset" />
          </mxGeometry>
        </mxCell>
        <mxCell id="usgcLU4qQVvWO1kqKJym-4" value="服务消费者A" style="rounded=1;whiteSpace=wrap;html=1;" vertex="1" parent="1">
          <mxGeometry x="180" y="90" width="120" height="60" as="geometry" />
        </mxCell>
        <mxCell id="usgcLU4qQVvWO1kqKJym-5" value="Nacos注册中心" style="rounded=0;whiteSpace=wrap;html=1;" vertex="1" parent="1">
          <mxGeometry x="354" y="210" width="120" height="60" as="geometry" />
        </mxCell>
        <mxCell id="usgcLU4qQVvWO1kqKJym-12" value="服务注册、维持心跳" style="text;html=1;align=center;verticalAlign=middle;resizable=0;points=[];autosize=1;strokeColor=none;fillColor=none;" vertex="1" parent="1">
          <mxGeometry x="410" y="98" width="130" height="30" as="geometry" />
        </mxCell>
        <mxCell id="usgcLU4qQVvWO1kqKJym-14" value="服务注册、维持心跳" style="text;html=1;align=center;verticalAlign=middle;resizable=0;points=[];autosize=1;strokeColor=none;fillColor=none;" vertex="1" parent="1">
          <mxGeometry x="470" y="218" width="130" height="30" as="geometry" />
        </mxCell>
      </root>
    </mxGraphModel>
  </diagram>
</mxfile>
